<mxfile host="app.diagrams.net" modified="2024-06-06T15:02:37.293Z" agent="Mozilla/5.0 (Windows NT 10.0; Win64; x64) AppleWebKit/537.36 (KHTML, like Gecko) Chrome/125.0.0.0 Safari/537.36" etag="HATrMRjc7QzDR9T_xsej" version="24.4.14" type="device">
  <diagram name="Страница — 1" id="Ol-FRXEjXuCObVsHG_K1">
    <mxGraphModel dx="1178" dy="764" grid="1" gridSize="10" guides="1" tooltips="1" connect="1" arrows="1" fold="1" page="1" pageScale="1" pageWidth="827" pageHeight="1169" math="0" shadow="0">
      <root>
        <mxCell id="0" />
        <mxCell id="1" parent="0" />
        <mxCell id="GRCh_y9OLHWWVmhPBEH5-6" style="edgeStyle=orthogonalEdgeStyle;rounded=0;orthogonalLoop=1;jettySize=auto;html=1;exitX=1;exitY=0.75;exitDx=0;exitDy=0;fontFamily=Times New Roman;" parent="1" edge="1">
          <mxGeometry relative="1" as="geometry">
            <mxPoint x="2145" y="300.7142857142858" as="targetPoint" />
            <mxPoint x="2014.9999999999995" y="300" as="sourcePoint" />
          </mxGeometry>
        </mxCell>
        <mxCell id="GRCh_y9OLHWWVmhPBEH5-7" style="edgeStyle=orthogonalEdgeStyle;rounded=0;orthogonalLoop=1;jettySize=auto;html=1;exitX=1;exitY=0.5;exitDx=0;exitDy=0;fontFamily=Times New Roman;" parent="1" edge="1">
          <mxGeometry relative="1" as="geometry">
            <mxPoint x="2145" y="255" as="targetPoint" />
            <mxPoint x="2014.9999999999995" y="255" as="sourcePoint" />
          </mxGeometry>
        </mxCell>
        <mxCell id="GRCh_y9OLHWWVmhPBEH5-8" value="MULTIPLIER" style="rounded=0;whiteSpace=wrap;html=1;fontFamily=Times New Roman;fontStyle=1;fontSize=14;" parent="1" vertex="1">
          <mxGeometry x="1895" y="140" width="120" height="180" as="geometry" />
        </mxCell>
        <mxCell id="GRCh_y9OLHWWVmhPBEH5-9" style="edgeStyle=orthogonalEdgeStyle;rounded=0;orthogonalLoop=1;jettySize=auto;html=1;exitX=1;exitY=0.5;exitDx=0;exitDy=0;entryX=0;entryY=0.25;entryDx=0;entryDy=0;fontFamily=Times New Roman;" parent="1" source="GRCh_y9OLHWWVmhPBEH5-10" target="GRCh_y9OLHWWVmhPBEH5-8" edge="1">
          <mxGeometry relative="1" as="geometry" />
        </mxCell>
        <mxCell id="GRCh_y9OLHWWVmhPBEH5-10" value="&lt;div style=&quot;font-size: 14px;&quot;&gt;REG&lt;/div&gt;&lt;div style=&quot;font-size: 14px;&quot;&gt;mult_a&lt;/div&gt;&lt;div style=&quot;font-size: 14px;&quot;&gt;[7:0]&lt;/div&gt;&lt;div style=&quot;font-size: 14px;&quot;&gt;&lt;br style=&quot;font-size: 14px;&quot;&gt;&lt;/div&gt;" style="rounded=0;whiteSpace=wrap;html=1;fontFamily=Times New Roman;fontSize=14;" parent="1" vertex="1">
          <mxGeometry x="1703.33" width="70" height="100" as="geometry" />
        </mxCell>
        <mxCell id="GRCh_y9OLHWWVmhPBEH5-11" style="edgeStyle=orthogonalEdgeStyle;rounded=0;orthogonalLoop=1;jettySize=auto;html=1;exitX=-0.059;exitY=0.388;exitDx=0;exitDy=0;endArrow=none;endFill=0;startArrow=classicThin;startFill=1;fontSize=14;fontFamily=Times New Roman;exitPerimeter=0;" parent="1" edge="1">
          <mxGeometry relative="1" as="geometry">
            <mxPoint x="1657.46" y="70.20000000000005" as="targetPoint" />
            <mxPoint x="1703.33" y="69.99999999999977" as="sourcePoint" />
          </mxGeometry>
        </mxCell>
        <mxCell id="GRCh_y9OLHWWVmhPBEH5-12" value="clk_i" style="edgeLabel;html=1;align=center;verticalAlign=middle;resizable=0;points=[];fontSize=14;fontFamily=Times New Roman;" parent="GRCh_y9OLHWWVmhPBEH5-11" vertex="1" connectable="0">
          <mxGeometry x="0.9804" y="-1" relative="1" as="geometry">
            <mxPoint x="15" y="-12" as="offset" />
          </mxGeometry>
        </mxCell>
        <mxCell id="GRCh_y9OLHWWVmhPBEH5-13" style="edgeStyle=orthogonalEdgeStyle;rounded=0;orthogonalLoop=1;jettySize=auto;html=1;exitX=0.25;exitY=0;exitDx=0;exitDy=0;endArrow=none;endFill=0;startArrow=classicThin;startFill=1;fontSize=14;fontFamily=Times New Roman;" parent="1" edge="1">
          <mxGeometry relative="1" as="geometry">
            <mxPoint x="1655" y="90" as="targetPoint" />
            <mxPoint x="1703.33" y="90" as="sourcePoint" />
          </mxGeometry>
        </mxCell>
        <mxCell id="GRCh_y9OLHWWVmhPBEH5-14" value="rst_i" style="edgeLabel;html=1;align=center;verticalAlign=middle;resizable=0;points=[];fontSize=14;fontFamily=Times New Roman;" parent="GRCh_y9OLHWWVmhPBEH5-13" vertex="1" connectable="0">
          <mxGeometry x="0.9804" y="-1" relative="1" as="geometry">
            <mxPoint x="20" y="-9" as="offset" />
          </mxGeometry>
        </mxCell>
        <mxCell id="GRCh_y9OLHWWVmhPBEH5-15" value="&lt;div style=&quot;font-size: 14px;&quot;&gt;REG&lt;/div&gt;&lt;div style=&quot;font-size: 14px;&quot;&gt;mult_start&lt;/div&gt;&lt;div style=&quot;font-size: 14px;&quot;&gt;&lt;br style=&quot;font-size: 14px;&quot;&gt;&lt;/div&gt;" style="rounded=0;whiteSpace=wrap;html=1;fontFamily=Times New Roman;fontSize=14;" parent="1" vertex="1">
          <mxGeometry x="1703.33" y="310" width="70" height="100" as="geometry" />
        </mxCell>
        <mxCell id="GRCh_y9OLHWWVmhPBEH5-16" style="edgeStyle=orthogonalEdgeStyle;rounded=0;orthogonalLoop=1;jettySize=auto;html=1;exitX=-0.059;exitY=0.388;exitDx=0;exitDy=0;endArrow=none;endFill=0;startArrow=classicThin;startFill=1;fontSize=14;fontFamily=Times New Roman;exitPerimeter=0;" parent="1" edge="1">
          <mxGeometry relative="1" as="geometry">
            <mxPoint x="1657.46" y="380.20000000000005" as="targetPoint" />
            <mxPoint x="1703.33" y="379.9999999999998" as="sourcePoint" />
          </mxGeometry>
        </mxCell>
        <mxCell id="GRCh_y9OLHWWVmhPBEH5-17" value="clk_i" style="edgeLabel;html=1;align=center;verticalAlign=middle;resizable=0;points=[];fontSize=14;fontFamily=Times New Roman;" parent="GRCh_y9OLHWWVmhPBEH5-16" vertex="1" connectable="0">
          <mxGeometry x="0.9804" y="-1" relative="1" as="geometry">
            <mxPoint x="15" y="-12" as="offset" />
          </mxGeometry>
        </mxCell>
        <mxCell id="GRCh_y9OLHWWVmhPBEH5-18" style="edgeStyle=orthogonalEdgeStyle;rounded=0;orthogonalLoop=1;jettySize=auto;html=1;exitX=0.25;exitY=0;exitDx=0;exitDy=0;endArrow=none;endFill=0;startArrow=classicThin;startFill=1;fontSize=14;fontFamily=Times New Roman;" parent="1" edge="1">
          <mxGeometry relative="1" as="geometry">
            <mxPoint x="1655" y="400" as="targetPoint" />
            <mxPoint x="1703.33" y="400" as="sourcePoint" />
          </mxGeometry>
        </mxCell>
        <mxCell id="GRCh_y9OLHWWVmhPBEH5-19" value="rst_i" style="edgeLabel;html=1;align=center;verticalAlign=middle;resizable=0;points=[];fontSize=14;fontFamily=Times New Roman;" parent="GRCh_y9OLHWWVmhPBEH5-18" vertex="1" connectable="0">
          <mxGeometry x="0.9804" y="-1" relative="1" as="geometry">
            <mxPoint x="20" y="-9" as="offset" />
          </mxGeometry>
        </mxCell>
        <mxCell id="GRCh_y9OLHWWVmhPBEH5-20" style="edgeStyle=orthogonalEdgeStyle;rounded=0;orthogonalLoop=1;jettySize=auto;html=1;exitX=1;exitY=0.5;exitDx=0;exitDy=0;entryX=0;entryY=0.5;entryDx=0;entryDy=0;fontFamily=Times New Roman;" parent="1" source="GRCh_y9OLHWWVmhPBEH5-21" target="GRCh_y9OLHWWVmhPBEH5-8" edge="1">
          <mxGeometry relative="1" as="geometry" />
        </mxCell>
        <mxCell id="GRCh_y9OLHWWVmhPBEH5-21" value="&lt;div style=&quot;font-size: 14px;&quot;&gt;REG&lt;/div&gt;&lt;div style=&quot;font-size: 14px;&quot;&gt;mult_b&lt;/div&gt;&lt;div style=&quot;font-size: 14px;&quot;&gt;[7:0]&lt;/div&gt;&lt;div style=&quot;font-size: 14px;&quot;&gt;&lt;br style=&quot;font-size: 14px;&quot;&gt;&lt;/div&gt;" style="rounded=0;whiteSpace=wrap;html=1;fontFamily=Times New Roman;fontSize=14;" parent="1" vertex="1">
          <mxGeometry x="1703.33" y="155" width="70" height="100" as="geometry" />
        </mxCell>
        <mxCell id="GRCh_y9OLHWWVmhPBEH5-22" style="edgeStyle=orthogonalEdgeStyle;rounded=0;orthogonalLoop=1;jettySize=auto;html=1;exitX=-0.059;exitY=0.388;exitDx=0;exitDy=0;endArrow=none;endFill=0;startArrow=classicThin;startFill=1;fontSize=14;fontFamily=Times New Roman;exitPerimeter=0;" parent="1" edge="1">
          <mxGeometry relative="1" as="geometry">
            <mxPoint x="1657.46" y="225.20000000000005" as="targetPoint" />
            <mxPoint x="1703.33" y="224.99999999999977" as="sourcePoint" />
          </mxGeometry>
        </mxCell>
        <mxCell id="GRCh_y9OLHWWVmhPBEH5-23" value="clk_i" style="edgeLabel;html=1;align=center;verticalAlign=middle;resizable=0;points=[];fontSize=14;fontFamily=Times New Roman;" parent="GRCh_y9OLHWWVmhPBEH5-22" vertex="1" connectable="0">
          <mxGeometry x="0.9804" y="-1" relative="1" as="geometry">
            <mxPoint x="15" y="-12" as="offset" />
          </mxGeometry>
        </mxCell>
        <mxCell id="GRCh_y9OLHWWVmhPBEH5-24" style="edgeStyle=orthogonalEdgeStyle;rounded=0;orthogonalLoop=1;jettySize=auto;html=1;exitX=0.25;exitY=0;exitDx=0;exitDy=0;endArrow=none;endFill=0;startArrow=classicThin;startFill=1;fontSize=14;fontFamily=Times New Roman;" parent="1" edge="1">
          <mxGeometry relative="1" as="geometry">
            <mxPoint x="1655" y="245" as="targetPoint" />
            <mxPoint x="1703.33" y="245" as="sourcePoint" />
          </mxGeometry>
        </mxCell>
        <mxCell id="GRCh_y9OLHWWVmhPBEH5-25" value="rst_i" style="edgeLabel;html=1;align=center;verticalAlign=middle;resizable=0;points=[];fontSize=14;fontFamily=Times New Roman;" parent="GRCh_y9OLHWWVmhPBEH5-24" vertex="1" connectable="0">
          <mxGeometry x="0.9804" y="-1" relative="1" as="geometry">
            <mxPoint x="20" y="-9" as="offset" />
          </mxGeometry>
        </mxCell>
        <mxCell id="GRCh_y9OLHWWVmhPBEH5-26" value="mult_result" style="text;whiteSpace=wrap;fontFamily=Times New Roman;" parent="1" vertex="1">
          <mxGeometry x="2025" y="280" width="90" height="40" as="geometry" />
        </mxCell>
        <mxCell id="GRCh_y9OLHWWVmhPBEH5-27" value="mult_busy" style="text;whiteSpace=wrap;fontFamily=Times New Roman;" parent="1" vertex="1">
          <mxGeometry x="2025" y="230" width="90" height="40" as="geometry" />
        </mxCell>
        <mxCell id="GRCh_y9OLHWWVmhPBEH5-28" value="mult_a" style="text;whiteSpace=wrap;fontFamily=Times New Roman;" parent="1" vertex="1">
          <mxGeometry x="1845" y="150" width="70" height="40" as="geometry" />
        </mxCell>
        <mxCell id="GRCh_y9OLHWWVmhPBEH5-29" value="mult_b" style="text;whiteSpace=wrap;fontFamily=Times New Roman;" parent="1" vertex="1">
          <mxGeometry x="1845" y="201.25" width="70" height="20" as="geometry" />
        </mxCell>
        <mxCell id="GRCh_y9OLHWWVmhPBEH5-30" value="mult_start" style="text;whiteSpace=wrap;fontFamily=Times New Roman;" parent="1" vertex="1">
          <mxGeometry x="1835" y="276" width="70" height="40" as="geometry" />
        </mxCell>
        <mxCell id="GRCh_y9OLHWWVmhPBEH5-31" style="edgeStyle=orthogonalEdgeStyle;rounded=0;orthogonalLoop=1;jettySize=auto;html=1;exitX=0.25;exitY=0;exitDx=0;exitDy=0;endArrow=none;endFill=0;startArrow=classicThin;startFill=1;fontSize=14;fontFamily=Times New Roman;" parent="1" edge="1">
          <mxGeometry relative="1" as="geometry">
            <mxPoint x="1933.1957142857145" y="90" as="targetPoint" />
            <mxPoint x="1932.9099999999999" y="140" as="sourcePoint" />
          </mxGeometry>
        </mxCell>
        <mxCell id="GRCh_y9OLHWWVmhPBEH5-32" value="&lt;font style=&quot;font-size: 14px;&quot;&gt;clk_i&lt;/font&gt;" style="edgeLabel;html=1;align=center;verticalAlign=middle;resizable=0;points=[];fontSize=14;fontFamily=Times New Roman;" parent="GRCh_y9OLHWWVmhPBEH5-31" vertex="1" connectable="0">
          <mxGeometry x="0.9804" y="-1" relative="1" as="geometry">
            <mxPoint as="offset" />
          </mxGeometry>
        </mxCell>
        <mxCell id="GRCh_y9OLHWWVmhPBEH5-33" style="edgeStyle=orthogonalEdgeStyle;rounded=0;orthogonalLoop=1;jettySize=auto;html=1;exitX=0.25;exitY=0;exitDx=0;exitDy=0;endArrow=none;endFill=0;startArrow=classicThin;startFill=1;fontSize=14;fontFamily=Times New Roman;" parent="1" edge="1">
          <mxGeometry relative="1" as="geometry">
            <mxPoint x="1976.1957142857145" y="90" as="targetPoint" />
            <mxPoint x="1975.9099999999999" y="140" as="sourcePoint" />
          </mxGeometry>
        </mxCell>
        <mxCell id="GRCh_y9OLHWWVmhPBEH5-34" value="rst_i" style="edgeLabel;html=1;align=center;verticalAlign=middle;resizable=0;points=[];fontSize=14;fontFamily=Times New Roman;" parent="GRCh_y9OLHWWVmhPBEH5-33" vertex="1" connectable="0">
          <mxGeometry x="0.9804" y="-1" relative="1" as="geometry">
            <mxPoint as="offset" />
          </mxGeometry>
        </mxCell>
        <mxCell id="GRCh_y9OLHWWVmhPBEH5-35" style="edgeStyle=orthogonalEdgeStyle;rounded=0;orthogonalLoop=1;jettySize=auto;html=1;exitX=1;exitY=0.5;exitDx=0;exitDy=0;entryX=-0.033;entryY=0.886;entryDx=0;entryDy=0;entryPerimeter=0;fontFamily=Times New Roman;" parent="1" source="GRCh_y9OLHWWVmhPBEH5-15" target="GRCh_y9OLHWWVmhPBEH5-8" edge="1">
          <mxGeometry relative="1" as="geometry" />
        </mxCell>
        <mxCell id="eD3EnxpkZgD8jWpwzmpm-68" style="edgeStyle=orthogonalEdgeStyle;rounded=0;orthogonalLoop=1;jettySize=auto;html=1;exitX=1;exitY=0.25;exitDx=0;exitDy=0;entryX=0;entryY=0.25;entryDx=0;entryDy=0;" edge="1" parent="1" source="eD3EnxpkZgD8jWpwzmpm-42" target="eD3EnxpkZgD8jWpwzmpm-49">
          <mxGeometry relative="1" as="geometry" />
        </mxCell>
        <mxCell id="eD3EnxpkZgD8jWpwzmpm-42" value="&lt;div style=&quot;font-size: 14px;&quot;&gt;REG&lt;/div&gt;&lt;div style=&quot;font-size: 14px;&quot;&gt;y&lt;/div&gt;&lt;div style=&quot;font-size: 14px;&quot;&gt;[7:0]&lt;/div&gt;&lt;div style=&quot;font-size: 14px;&quot;&gt;&lt;br style=&quot;font-size: 14px;&quot;&gt;&lt;/div&gt;" style="rounded=0;whiteSpace=wrap;html=1;fontFamily=Times New Roman;fontSize=14;" vertex="1" parent="1">
          <mxGeometry x="2189.33" y="771.25" width="70" height="100" as="geometry" />
        </mxCell>
        <mxCell id="eD3EnxpkZgD8jWpwzmpm-43" style="edgeStyle=orthogonalEdgeStyle;rounded=0;orthogonalLoop=1;jettySize=auto;html=1;exitX=-0.059;exitY=0.388;exitDx=0;exitDy=0;endArrow=none;endFill=0;startArrow=classicThin;startFill=1;fontSize=14;fontFamily=Times New Roman;exitPerimeter=0;" edge="1" parent="1">
          <mxGeometry relative="1" as="geometry">
            <mxPoint x="2142.18" y="831.45" as="targetPoint" />
            <mxPoint x="2188.0499999999997" y="831.2499999999998" as="sourcePoint" />
          </mxGeometry>
        </mxCell>
        <mxCell id="eD3EnxpkZgD8jWpwzmpm-44" value="clk_i" style="edgeLabel;html=1;align=center;verticalAlign=middle;resizable=0;points=[];fontSize=14;fontFamily=Times New Roman;" vertex="1" connectable="0" parent="eD3EnxpkZgD8jWpwzmpm-43">
          <mxGeometry x="0.9804" y="-1" relative="1" as="geometry">
            <mxPoint x="15" y="-12" as="offset" />
          </mxGeometry>
        </mxCell>
        <mxCell id="eD3EnxpkZgD8jWpwzmpm-45" style="edgeStyle=orthogonalEdgeStyle;rounded=0;orthogonalLoop=1;jettySize=auto;html=1;exitX=0.25;exitY=0;exitDx=0;exitDy=0;endArrow=none;endFill=0;startArrow=classicThin;startFill=1;fontSize=14;fontFamily=Times New Roman;" edge="1" parent="1">
          <mxGeometry relative="1" as="geometry">
            <mxPoint x="2139.72" y="851.25" as="targetPoint" />
            <mxPoint x="2188.0499999999997" y="851.25" as="sourcePoint" />
          </mxGeometry>
        </mxCell>
        <mxCell id="eD3EnxpkZgD8jWpwzmpm-46" value="rst_i" style="edgeLabel;html=1;align=center;verticalAlign=middle;resizable=0;points=[];fontSize=14;fontFamily=Times New Roman;" vertex="1" connectable="0" parent="eD3EnxpkZgD8jWpwzmpm-45">
          <mxGeometry x="0.9804" y="-1" relative="1" as="geometry">
            <mxPoint x="20" y="-9" as="offset" />
          </mxGeometry>
        </mxCell>
        <mxCell id="eD3EnxpkZgD8jWpwzmpm-48" style="edgeStyle=orthogonalEdgeStyle;rounded=0;orthogonalLoop=1;jettySize=auto;html=1;exitX=1;exitY=0.5;exitDx=0;exitDy=0;fontFamily=Times New Roman;fontSize=14;" edge="1" parent="1" source="eD3EnxpkZgD8jWpwzmpm-49">
          <mxGeometry relative="1" as="geometry">
            <mxPoint x="2478.52" y="820.5833333333335" as="targetPoint" />
          </mxGeometry>
        </mxCell>
        <mxCell id="eD3EnxpkZgD8jWpwzmpm-49" value="&lt;div style=&quot;font-size: 14px;&quot;&gt;REG&lt;/div&gt;&lt;div style=&quot;font-size: 14px;&quot;&gt;y_bo&lt;/div&gt;&lt;div style=&quot;font-size: 14px;&quot;&gt;[4:0]&lt;/div&gt;" style="rounded=0;whiteSpace=wrap;html=1;fontFamily=Times New Roman;fontSize=14;" vertex="1" parent="1">
          <mxGeometry x="2336.85" y="771.25" width="70" height="100" as="geometry" />
        </mxCell>
        <mxCell id="eD3EnxpkZgD8jWpwzmpm-50" style="edgeStyle=orthogonalEdgeStyle;rounded=0;orthogonalLoop=1;jettySize=auto;html=1;exitX=-0.059;exitY=0.388;exitDx=0;exitDy=0;endArrow=none;endFill=0;startArrow=classicThin;startFill=1;fontSize=14;fontFamily=Times New Roman;exitPerimeter=0;" edge="1" parent="1">
          <mxGeometry relative="1" as="geometry">
            <mxPoint x="2290.98" y="841.45" as="targetPoint" />
            <mxPoint x="2336.85" y="841.2499999999998" as="sourcePoint" />
          </mxGeometry>
        </mxCell>
        <mxCell id="eD3EnxpkZgD8jWpwzmpm-51" value="clk_i" style="edgeLabel;html=1;align=center;verticalAlign=middle;resizable=0;points=[];fontSize=14;fontFamily=Times New Roman;" vertex="1" connectable="0" parent="eD3EnxpkZgD8jWpwzmpm-50">
          <mxGeometry x="0.9804" y="-1" relative="1" as="geometry">
            <mxPoint x="15" y="-12" as="offset" />
          </mxGeometry>
        </mxCell>
        <mxCell id="eD3EnxpkZgD8jWpwzmpm-52" style="edgeStyle=orthogonalEdgeStyle;rounded=0;orthogonalLoop=1;jettySize=auto;html=1;exitX=0.25;exitY=0;exitDx=0;exitDy=0;endArrow=none;endFill=0;startArrow=classicThin;startFill=1;fontSize=14;fontFamily=Times New Roman;" edge="1" parent="1">
          <mxGeometry relative="1" as="geometry">
            <mxPoint x="2288.52" y="861.25" as="targetPoint" />
            <mxPoint x="2336.85" y="861.25" as="sourcePoint" />
          </mxGeometry>
        </mxCell>
        <mxCell id="eD3EnxpkZgD8jWpwzmpm-53" value="rst_i" style="edgeLabel;html=1;align=center;verticalAlign=middle;resizable=0;points=[];fontSize=14;fontFamily=Times New Roman;" vertex="1" connectable="0" parent="eD3EnxpkZgD8jWpwzmpm-52">
          <mxGeometry x="0.9804" y="-1" relative="1" as="geometry">
            <mxPoint x="20" y="-9" as="offset" />
          </mxGeometry>
        </mxCell>
        <mxCell id="eD3EnxpkZgD8jWpwzmpm-54" value="y_bo" style="text;html=1;align=center;verticalAlign=middle;resizable=0;points=[];autosize=1;strokeColor=none;fillColor=none;fontFamily=Times New Roman;fontSize=14;" vertex="1" parent="1">
          <mxGeometry x="2406.85" y="791.25" width="50" height="30" as="geometry" />
        </mxCell>
        <mxCell id="eD3EnxpkZgD8jWpwzmpm-55" style="edgeStyle=orthogonalEdgeStyle;rounded=0;orthogonalLoop=1;jettySize=auto;html=1;exitX=1;exitY=0.5;exitDx=0;exitDy=0;entryX=0;entryY=0.5;entryDx=0;entryDy=0;fontFamily=Times New Roman;" edge="1" parent="1" source="eD3EnxpkZgD8jWpwzmpm-56" target="eD3EnxpkZgD8jWpwzmpm-62">
          <mxGeometry relative="1" as="geometry" />
        </mxCell>
        <mxCell id="eD3EnxpkZgD8jWpwzmpm-56" value="CMP&lt;div&gt;==&lt;/div&gt;" style="triangle;whiteSpace=wrap;html=1;fontFamily=Times New Roman;" vertex="1" parent="1">
          <mxGeometry x="2259.33" y="910.25" width="71.67" height="80" as="geometry" />
        </mxCell>
        <mxCell id="eD3EnxpkZgD8jWpwzmpm-57" style="edgeStyle=orthogonalEdgeStyle;rounded=0;orthogonalLoop=1;jettySize=auto;html=1;entryX=0;entryY=0.25;entryDx=0;entryDy=0;fontFamily=Times New Roman;" edge="1" parent="1" target="eD3EnxpkZgD8jWpwzmpm-56">
          <mxGeometry relative="1" as="geometry">
            <mxPoint x="2190" y="1081" as="sourcePoint" />
            <Array as="points">
              <mxPoint x="2190" y="1081" />
              <mxPoint x="2190" y="930" />
            </Array>
          </mxGeometry>
        </mxCell>
        <mxCell id="eD3EnxpkZgD8jWpwzmpm-59" style="edgeStyle=orthogonalEdgeStyle;rounded=0;orthogonalLoop=1;jettySize=auto;html=1;exitX=0;exitY=0.5;exitDx=0;exitDy=0;entryX=0;entryY=0.5;entryDx=0;entryDy=0;fontFamily=Times New Roman;" edge="1" parent="1" source="eD3EnxpkZgD8jWpwzmpm-60" target="eD3EnxpkZgD8jWpwzmpm-56">
          <mxGeometry relative="1" as="geometry" />
        </mxCell>
        <mxCell id="eD3EnxpkZgD8jWpwzmpm-60" value="" style="triangle;whiteSpace=wrap;html=1;rotation=90;fontFamily=Times New Roman;" vertex="1" parent="1">
          <mxGeometry x="2230.67" y="1024.59" width="16.67" height="26.66" as="geometry" />
        </mxCell>
        <mxCell id="eD3EnxpkZgD8jWpwzmpm-61" value="state == IDLE" style="text;html=1;align=center;verticalAlign=middle;resizable=0;points=[];autosize=1;strokeColor=none;fillColor=none;fontFamily=Times New Roman;fontSize=14;" vertex="1" parent="1">
          <mxGeometry x="2270.78" y="893.25" width="100" height="30" as="geometry" />
        </mxCell>
        <mxCell id="eD3EnxpkZgD8jWpwzmpm-62" value="" style="triangle;whiteSpace=wrap;html=1;fontFamily=Times New Roman;" vertex="1" parent="1">
          <mxGeometry x="2361" y="931.25" width="35" height="40" as="geometry" />
        </mxCell>
        <mxCell id="eD3EnxpkZgD8jWpwzmpm-63" style="edgeStyle=orthogonalEdgeStyle;rounded=0;orthogonalLoop=1;jettySize=auto;html=1;exitX=1;exitY=0.5;exitDx=0;exitDy=0;fontFamily=Times New Roman;" edge="1" parent="1" source="eD3EnxpkZgD8jWpwzmpm-64">
          <mxGeometry relative="1" as="geometry">
            <mxPoint x="2481" y="950.25" as="targetPoint" />
          </mxGeometry>
        </mxCell>
        <mxCell id="eD3EnxpkZgD8jWpwzmpm-64" value="" style="ellipse;whiteSpace=wrap;html=1;aspect=fixed;fontFamily=Times New Roman;" vertex="1" parent="1">
          <mxGeometry x="2396" y="945.25" width="10" height="10" as="geometry" />
        </mxCell>
        <mxCell id="eD3EnxpkZgD8jWpwzmpm-65" value="busy_o" style="text;html=1;align=center;verticalAlign=middle;resizable=0;points=[];autosize=1;strokeColor=none;fillColor=none;fontFamily=Times New Roman;fontSize=14;" vertex="1" parent="1">
          <mxGeometry x="2415" y="923.25" width="60" height="30" as="geometry" />
        </mxCell>
        <mxCell id="eD3EnxpkZgD8jWpwzmpm-67" value="state" style="text;html=1;align=center;verticalAlign=middle;resizable=0;points=[];autosize=1;strokeColor=none;fillColor=none;fontFamily=Times New Roman;" vertex="1" parent="1">
          <mxGeometry x="2166" y="1078.25" width="50" height="30" as="geometry" />
        </mxCell>
        <mxCell id="eD3EnxpkZgD8jWpwzmpm-100" style="edgeStyle=orthogonalEdgeStyle;rounded=0;orthogonalLoop=1;jettySize=auto;html=1;exitX=1;exitY=0.5;exitDx=0;exitDy=0;" edge="1" parent="1" source="eD3EnxpkZgD8jWpwzmpm-70">
          <mxGeometry relative="1" as="geometry">
            <mxPoint x="1904.33" y="829" as="targetPoint" />
          </mxGeometry>
        </mxCell>
        <mxCell id="eD3EnxpkZgD8jWpwzmpm-70" value="CMP&lt;div style=&quot;font-size: 14px;&quot;&gt;&amp;lt;&lt;/div&gt;" style="triangle;whiteSpace=wrap;html=1;fontFamily=Times New Roman;fontSize=14;" vertex="1" parent="1">
          <mxGeometry x="1794.33" y="792" width="50" height="74" as="geometry" />
        </mxCell>
        <mxCell id="eD3EnxpkZgD8jWpwzmpm-71" style="edgeStyle=orthogonalEdgeStyle;rounded=0;orthogonalLoop=1;jettySize=auto;html=1;exitX=1;exitY=0.25;exitDx=0;exitDy=0;entryX=0;entryY=0.25;entryDx=0;entryDy=0;fontFamily=Times New Roman;fontSize=14;" edge="1" parent="1" source="eD3EnxpkZgD8jWpwzmpm-72" target="eD3EnxpkZgD8jWpwzmpm-70">
          <mxGeometry relative="1" as="geometry" />
        </mxCell>
        <mxCell id="eD3EnxpkZgD8jWpwzmpm-72" value="&lt;div style=&quot;font-size: 14px;&quot;&gt;REG&lt;/div&gt;&lt;div style=&quot;font-size: 14px;&quot;&gt;s&lt;/div&gt;&lt;div style=&quot;font-size: 14px;&quot;&gt;[7:0]&lt;/div&gt;" style="rounded=0;whiteSpace=wrap;html=1;fontFamily=Times New Roman;fontSize=14;" vertex="1" parent="1">
          <mxGeometry x="1526.6599999999999" y="785" width="70" height="100" as="geometry" />
        </mxCell>
        <mxCell id="eD3EnxpkZgD8jWpwzmpm-73" style="edgeStyle=orthogonalEdgeStyle;rounded=0;orthogonalLoop=1;jettySize=auto;html=1;exitX=-0.059;exitY=0.388;exitDx=0;exitDy=0;endArrow=none;endFill=0;startArrow=classicThin;startFill=1;fontSize=14;fontFamily=Times New Roman;exitPerimeter=0;" edge="1" parent="1">
          <mxGeometry relative="1" as="geometry">
            <mxPoint x="1480.79" y="855.2" as="targetPoint" />
            <mxPoint x="1526.6599999999999" y="854.9999999999998" as="sourcePoint" />
          </mxGeometry>
        </mxCell>
        <mxCell id="eD3EnxpkZgD8jWpwzmpm-74" value="clk_i" style="edgeLabel;html=1;align=center;verticalAlign=middle;resizable=0;points=[];fontSize=14;fontFamily=Times New Roman;" vertex="1" connectable="0" parent="eD3EnxpkZgD8jWpwzmpm-73">
          <mxGeometry x="0.9804" y="-1" relative="1" as="geometry">
            <mxPoint x="15" y="-12" as="offset" />
          </mxGeometry>
        </mxCell>
        <mxCell id="eD3EnxpkZgD8jWpwzmpm-75" style="edgeStyle=orthogonalEdgeStyle;rounded=0;orthogonalLoop=1;jettySize=auto;html=1;exitX=0.25;exitY=0;exitDx=0;exitDy=0;endArrow=none;endFill=0;startArrow=classicThin;startFill=1;fontSize=14;fontFamily=Times New Roman;" edge="1" parent="1">
          <mxGeometry relative="1" as="geometry">
            <mxPoint x="1478.33" y="875" as="targetPoint" />
            <mxPoint x="1526.6599999999999" y="875" as="sourcePoint" />
          </mxGeometry>
        </mxCell>
        <mxCell id="eD3EnxpkZgD8jWpwzmpm-76" value="rst_i" style="edgeLabel;html=1;align=center;verticalAlign=middle;resizable=0;points=[];fontSize=14;fontFamily=Times New Roman;" vertex="1" connectable="0" parent="eD3EnxpkZgD8jWpwzmpm-75">
          <mxGeometry x="0.9804" y="-1" relative="1" as="geometry">
            <mxPoint x="20" y="-9" as="offset" />
          </mxGeometry>
        </mxCell>
        <mxCell id="eD3EnxpkZgD8jWpwzmpm-77" style="edgeStyle=orthogonalEdgeStyle;rounded=0;orthogonalLoop=1;jettySize=auto;html=1;exitX=0;exitY=0.5;exitDx=0;exitDy=0;entryX=0;entryY=0.75;entryDx=0;entryDy=0;fontFamily=Times New Roman;fontSize=14;" edge="1" parent="1" source="eD3EnxpkZgD8jWpwzmpm-78" target="eD3EnxpkZgD8jWpwzmpm-70">
          <mxGeometry relative="1" as="geometry" />
        </mxCell>
        <mxCell id="eD3EnxpkZgD8jWpwzmpm-78" value="" style="triangle;whiteSpace=wrap;html=1;rotation=90;fontFamily=Times New Roman;fontSize=14;" vertex="1" parent="1">
          <mxGeometry x="1750.08" y="880.75" width="18.75" height="30" as="geometry" />
        </mxCell>
        <mxCell id="eD3EnxpkZgD8jWpwzmpm-79" value="s &amp;lt; 0" style="text;html=1;align=center;verticalAlign=middle;resizable=0;points=[];autosize=1;strokeColor=none;fillColor=none;fontFamily=Times New Roman;fontSize=14;" vertex="1" parent="1">
          <mxGeometry x="1807.33" y="785" width="50" height="30" as="geometry" />
        </mxCell>
        <mxCell id="eD3EnxpkZgD8jWpwzmpm-80" value="end_step" style="text;html=1;align=center;verticalAlign=middle;whiteSpace=wrap;rounded=0;fontFamily=Times New Roman;fontSize=14;" vertex="1" parent="1">
          <mxGeometry x="1844.33" y="804.02" width="60" height="30" as="geometry" />
        </mxCell>
        <mxCell id="eD3EnxpkZgD8jWpwzmpm-94" style="edgeStyle=orthogonalEdgeStyle;rounded=0;orthogonalLoop=1;jettySize=auto;html=1;exitX=0.5;exitY=0;exitDx=0;exitDy=0;entryX=0;entryY=0.25;entryDx=0;entryDy=0;fontFamily=Times New Roman;" edge="1" parent="1" source="eD3EnxpkZgD8jWpwzmpm-95" target="eD3EnxpkZgD8jWpwzmpm-72">
          <mxGeometry relative="1" as="geometry" />
        </mxCell>
        <mxCell id="eD3EnxpkZgD8jWpwzmpm-95" value="MX" style="shape=trapezoid;perimeter=trapezoidPerimeter;whiteSpace=wrap;html=1;fixedSize=1;rotation=90;fontFamily=Times New Roman;fontSize=14;" vertex="1" parent="1">
          <mxGeometry x="1348.33" y="804.02" width="120" height="60" as="geometry" />
        </mxCell>
        <mxCell id="eD3EnxpkZgD8jWpwzmpm-96" value="" style="endArrow=classic;html=1;rounded=0;entryX=0.25;entryY=1;entryDx=0;entryDy=0;exitX=0;exitY=1;exitDx=0;exitDy=0;fontFamily=Times New Roman;fontSize=14;" edge="1" parent="1">
          <mxGeometry width="50" height="50" relative="1" as="geometry">
            <mxPoint x="1278.33" y="795" as="sourcePoint" />
            <mxPoint x="1378.33" y="795" as="targetPoint" />
          </mxGeometry>
        </mxCell>
        <mxCell id="eD3EnxpkZgD8jWpwzmpm-97" value="b110" style="text;html=1;align=center;verticalAlign=middle;whiteSpace=wrap;rounded=0;fontFamily=Times New Roman;fontSize=14;" vertex="1" parent="1">
          <mxGeometry x="1278.33" y="765" width="90" height="30" as="geometry" />
        </mxCell>
        <mxCell id="eD3EnxpkZgD8jWpwzmpm-98" value="" style="endArrow=classic;html=1;rounded=0;entryX=0.25;entryY=1;entryDx=0;entryDy=0;exitX=0;exitY=1;exitDx=0;exitDy=0;fontFamily=Times New Roman;fontSize=14;" edge="1" parent="1" source="eD3EnxpkZgD8jWpwzmpm-99">
          <mxGeometry width="50" height="50" relative="1" as="geometry">
            <mxPoint x="1318.33" y="869.48" as="sourcePoint" />
            <mxPoint x="1378.33" y="869.48" as="targetPoint" />
          </mxGeometry>
        </mxCell>
        <mxCell id="eD3EnxpkZgD8jWpwzmpm-99" value="sum_result" style="text;html=1;align=center;verticalAlign=middle;whiteSpace=wrap;rounded=0;fontFamily=Times New Roman;fontSize=14;" vertex="1" parent="1">
          <mxGeometry x="1278.33" y="839.48" width="90" height="30" as="geometry" />
        </mxCell>
        <mxCell id="eD3EnxpkZgD8jWpwzmpm-126" style="edgeStyle=orthogonalEdgeStyle;rounded=0;orthogonalLoop=1;jettySize=auto;html=1;exitX=1;exitY=0.5;exitDx=0;exitDy=0;" edge="1" parent="1" source="eD3EnxpkZgD8jWpwzmpm-110">
          <mxGeometry relative="1" as="geometry">
            <mxPoint x="1820" y="1058.916666666667" as="targetPoint" />
          </mxGeometry>
        </mxCell>
        <mxCell id="eD3EnxpkZgD8jWpwzmpm-110" value="&lt;div style=&quot;font-size: 14px;&quot;&gt;REG&lt;/div&gt;&lt;div style=&quot;font-size: 14px;&quot;&gt;b&lt;/div&gt;&lt;div style=&quot;font-size: 14px;&quot;&gt;[7:0]&lt;/div&gt;" style="rounded=0;whiteSpace=wrap;html=1;fontFamily=Times New Roman;fontSize=14;" vertex="1" parent="1">
          <mxGeometry x="1693.33" y="1008.2500000000002" width="70" height="100" as="geometry" />
        </mxCell>
        <mxCell id="eD3EnxpkZgD8jWpwzmpm-111" style="edgeStyle=orthogonalEdgeStyle;rounded=0;orthogonalLoop=1;jettySize=auto;html=1;exitX=-0.059;exitY=0.388;exitDx=0;exitDy=0;endArrow=none;endFill=0;startArrow=classicThin;startFill=1;fontSize=14;fontFamily=Times New Roman;exitPerimeter=0;" edge="1" parent="1">
          <mxGeometry relative="1" as="geometry">
            <mxPoint x="1647.46" y="1078.45" as="targetPoint" />
            <mxPoint x="1693.33" y="1078.2499999999998" as="sourcePoint" />
          </mxGeometry>
        </mxCell>
        <mxCell id="eD3EnxpkZgD8jWpwzmpm-112" value="clk_i" style="edgeLabel;html=1;align=center;verticalAlign=middle;resizable=0;points=[];fontSize=14;fontFamily=Times New Roman;" vertex="1" connectable="0" parent="eD3EnxpkZgD8jWpwzmpm-111">
          <mxGeometry x="0.9804" y="-1" relative="1" as="geometry">
            <mxPoint x="15" y="-12" as="offset" />
          </mxGeometry>
        </mxCell>
        <mxCell id="eD3EnxpkZgD8jWpwzmpm-113" style="edgeStyle=orthogonalEdgeStyle;rounded=0;orthogonalLoop=1;jettySize=auto;html=1;exitX=0.25;exitY=0;exitDx=0;exitDy=0;endArrow=none;endFill=0;startArrow=classicThin;startFill=1;fontSize=14;fontFamily=Times New Roman;" edge="1" parent="1">
          <mxGeometry relative="1" as="geometry">
            <mxPoint x="1645" y="1098.2500000000002" as="targetPoint" />
            <mxPoint x="1693.33" y="1098.2500000000002" as="sourcePoint" />
          </mxGeometry>
        </mxCell>
        <mxCell id="eD3EnxpkZgD8jWpwzmpm-114" value="rst_i" style="edgeLabel;html=1;align=center;verticalAlign=middle;resizable=0;points=[];fontSize=14;fontFamily=Times New Roman;" vertex="1" connectable="0" parent="eD3EnxpkZgD8jWpwzmpm-113">
          <mxGeometry x="0.9804" y="-1" relative="1" as="geometry">
            <mxPoint x="20" y="-9" as="offset" />
          </mxGeometry>
        </mxCell>
        <mxCell id="eD3EnxpkZgD8jWpwzmpm-116" style="edgeStyle=orthogonalEdgeStyle;rounded=0;orthogonalLoop=1;jettySize=auto;html=1;exitX=0.5;exitY=0;exitDx=0;exitDy=0;entryX=0;entryY=0.25;entryDx=0;entryDy=0;" edge="1" parent="1" source="eD3EnxpkZgD8jWpwzmpm-117" target="eD3EnxpkZgD8jWpwzmpm-110">
          <mxGeometry relative="1" as="geometry" />
        </mxCell>
        <mxCell id="eD3EnxpkZgD8jWpwzmpm-117" value="MX" style="shape=trapezoid;perimeter=trapezoidPerimeter;whiteSpace=wrap;html=1;fixedSize=1;rotation=90;fontFamily=Times New Roman;fontSize=14;" vertex="1" parent="1">
          <mxGeometry x="1515" y="1010.2700000000002" width="120" height="60" as="geometry" />
        </mxCell>
        <mxCell id="eD3EnxpkZgD8jWpwzmpm-118" value="" style="endArrow=classic;html=1;rounded=0;exitX=0;exitY=1;exitDx=0;exitDy=0;fontFamily=Times New Roman;fontSize=14;" edge="1" parent="1">
          <mxGeometry width="50" height="50" relative="1" as="geometry">
            <mxPoint x="1445" y="1001.2500000000002" as="sourcePoint" />
            <mxPoint x="1545" y="1001.2500000000002" as="targetPoint" />
          </mxGeometry>
        </mxCell>
        <mxCell id="eD3EnxpkZgD8jWpwzmpm-119" value="sum_result" style="text;html=1;align=center;verticalAlign=middle;whiteSpace=wrap;rounded=0;fontFamily=Times New Roman;fontSize=14;" vertex="1" parent="1">
          <mxGeometry x="1445" y="971.2500000000002" width="90" height="30" as="geometry" />
        </mxCell>
        <mxCell id="eD3EnxpkZgD8jWpwzmpm-120" value="" style="endArrow=classic;html=1;rounded=0;entryX=0.25;entryY=1;entryDx=0;entryDy=0;exitX=0;exitY=1;exitDx=0;exitDy=0;fontFamily=Times New Roman;fontSize=14;" edge="1" parent="1">
          <mxGeometry width="50" height="50" relative="1" as="geometry">
            <mxPoint x="1445" y="1075.7300000000002" as="sourcePoint" />
            <mxPoint x="1545" y="1075.7300000000002" as="targetPoint" />
          </mxGeometry>
        </mxCell>
        <mxCell id="eD3EnxpkZgD8jWpwzmpm-121" value="&amp;lt;&amp;lt;" style="rounded=0;whiteSpace=wrap;html=1;" vertex="1" parent="1">
          <mxGeometry x="1371" y="1038.2500000000002" width="74" height="66.25" as="geometry" />
        </mxCell>
        <mxCell id="eD3EnxpkZgD8jWpwzmpm-122" value="" style="endArrow=classic;html=1;rounded=0;exitX=0;exitY=1;exitDx=0;exitDy=0;fontFamily=Times New Roman;fontSize=14;" edge="1" parent="1">
          <mxGeometry width="50" height="50" relative="1" as="geometry">
            <mxPoint x="1271" y="1058.71" as="sourcePoint" />
            <mxPoint x="1371" y="1058.71" as="targetPoint" />
          </mxGeometry>
        </mxCell>
        <mxCell id="eD3EnxpkZgD8jWpwzmpm-123" value="b" style="text;html=1;align=center;verticalAlign=middle;whiteSpace=wrap;rounded=0;fontFamily=Times New Roman;fontSize=14;" vertex="1" parent="1">
          <mxGeometry x="1271" y="1028.71" width="90" height="30" as="geometry" />
        </mxCell>
        <mxCell id="eD3EnxpkZgD8jWpwzmpm-124" value="" style="endArrow=classic;html=1;rounded=0;exitX=0;exitY=1;exitDx=0;exitDy=0;fontFamily=Times New Roman;fontSize=14;" edge="1" parent="1">
          <mxGeometry width="50" height="50" relative="1" as="geometry">
            <mxPoint x="1271" y="1095.4" as="sourcePoint" />
            <mxPoint x="1371" y="1095.4" as="targetPoint" />
          </mxGeometry>
        </mxCell>
        <mxCell id="eD3EnxpkZgD8jWpwzmpm-125" value="s" style="text;html=1;align=center;verticalAlign=middle;whiteSpace=wrap;rounded=0;fontFamily=Times New Roman;fontSize=14;" vertex="1" parent="1">
          <mxGeometry x="1271" y="1065.4" width="90" height="30" as="geometry" />
        </mxCell>
        <mxCell id="eD3EnxpkZgD8jWpwzmpm-133" style="edgeStyle=orthogonalEdgeStyle;rounded=0;orthogonalLoop=1;jettySize=auto;html=1;exitX=1;exitY=0.5;exitDx=0;exitDy=0;fontFamily=Times New Roman;fontSize=14;" edge="1" parent="1" source="eD3EnxpkZgD8jWpwzmpm-134">
          <mxGeometry relative="1" as="geometry">
            <mxPoint x="2480.9999999999995" y="617.1500000000001" as="targetPoint" />
          </mxGeometry>
        </mxCell>
        <mxCell id="eD3EnxpkZgD8jWpwzmpm-134" value="&lt;div style=&quot;font-size: 14px;&quot;&gt;REG&lt;/div&gt;&lt;div style=&quot;font-size: 14px;&quot;&gt;y&lt;/div&gt;&lt;div style=&quot;font-size: 14px;&quot;&gt;[7:0]&lt;/div&gt;&lt;div style=&quot;font-size: 14px;&quot;&gt;&lt;br style=&quot;font-size: 14px;&quot;&gt;&lt;/div&gt;" style="rounded=0;whiteSpace=wrap;html=1;fontFamily=Times New Roman;fontSize=14;" vertex="1" parent="1">
          <mxGeometry x="2338.33" y="566.75" width="70" height="100" as="geometry" />
        </mxCell>
        <mxCell id="eD3EnxpkZgD8jWpwzmpm-135" style="edgeStyle=orthogonalEdgeStyle;rounded=0;orthogonalLoop=1;jettySize=auto;html=1;exitX=-0.059;exitY=0.388;exitDx=0;exitDy=0;endArrow=none;endFill=0;startArrow=classicThin;startFill=1;fontSize=14;fontFamily=Times New Roman;exitPerimeter=0;" edge="1" parent="1">
          <mxGeometry relative="1" as="geometry">
            <mxPoint x="2292.46" y="636.95" as="targetPoint" />
            <mxPoint x="2338.33" y="636.7499999999998" as="sourcePoint" />
          </mxGeometry>
        </mxCell>
        <mxCell id="eD3EnxpkZgD8jWpwzmpm-136" value="clk_i" style="edgeLabel;html=1;align=center;verticalAlign=middle;resizable=0;points=[];fontSize=14;fontFamily=Times New Roman;" vertex="1" connectable="0" parent="eD3EnxpkZgD8jWpwzmpm-135">
          <mxGeometry x="0.9804" y="-1" relative="1" as="geometry">
            <mxPoint x="15" y="-12" as="offset" />
          </mxGeometry>
        </mxCell>
        <mxCell id="eD3EnxpkZgD8jWpwzmpm-137" style="edgeStyle=orthogonalEdgeStyle;rounded=0;orthogonalLoop=1;jettySize=auto;html=1;exitX=0.25;exitY=0;exitDx=0;exitDy=0;endArrow=none;endFill=0;startArrow=classicThin;startFill=1;fontSize=14;fontFamily=Times New Roman;" edge="1" parent="1">
          <mxGeometry relative="1" as="geometry">
            <mxPoint x="2290" y="656.75" as="targetPoint" />
            <mxPoint x="2338.33" y="656.75" as="sourcePoint" />
          </mxGeometry>
        </mxCell>
        <mxCell id="eD3EnxpkZgD8jWpwzmpm-138" value="rst_i" style="edgeLabel;html=1;align=center;verticalAlign=middle;resizable=0;points=[];fontSize=14;fontFamily=Times New Roman;" vertex="1" connectable="0" parent="eD3EnxpkZgD8jWpwzmpm-137">
          <mxGeometry x="0.9804" y="-1" relative="1" as="geometry">
            <mxPoint x="20" y="-9" as="offset" />
          </mxGeometry>
        </mxCell>
        <mxCell id="eD3EnxpkZgD8jWpwzmpm-139" value="y" style="text;html=1;align=center;verticalAlign=middle;resizable=0;points=[];autosize=1;strokeColor=none;fillColor=none;fontFamily=Times New Roman;fontSize=14;" vertex="1" parent="1">
          <mxGeometry x="2416" y="591.1500000000001" width="30" height="30" as="geometry" />
        </mxCell>
        <mxCell id="eD3EnxpkZgD8jWpwzmpm-140" style="edgeStyle=orthogonalEdgeStyle;rounded=0;orthogonalLoop=1;jettySize=auto;html=1;exitX=0.5;exitY=0;exitDx=0;exitDy=0;entryX=0;entryY=0.25;entryDx=0;entryDy=0;" edge="1" parent="1" source="eD3EnxpkZgD8jWpwzmpm-141" target="eD3EnxpkZgD8jWpwzmpm-134">
          <mxGeometry relative="1" as="geometry" />
        </mxCell>
        <mxCell id="eD3EnxpkZgD8jWpwzmpm-141" value="MX" style="shape=trapezoid;perimeter=trapezoidPerimeter;whiteSpace=wrap;html=1;fixedSize=1;rotation=90;fontFamily=Times New Roman;fontSize=14;" vertex="1" parent="1">
          <mxGeometry x="2144" y="598.21" width="120" height="60" as="geometry" />
        </mxCell>
        <mxCell id="eD3EnxpkZgD8jWpwzmpm-142" value="" style="endArrow=classic;html=1;rounded=0;entryX=0.25;entryY=1;entryDx=0;entryDy=0;exitX=0;exitY=1;exitDx=0;exitDy=0;fontFamily=Times New Roman;fontSize=14;" edge="1" parent="1">
          <mxGeometry width="50" height="50" relative="1" as="geometry">
            <mxPoint x="2074" y="589.19" as="sourcePoint" />
            <mxPoint x="2174" y="589.19" as="targetPoint" />
          </mxGeometry>
        </mxCell>
        <mxCell id="eD3EnxpkZgD8jWpwzmpm-143" value="b0000" style="text;html=1;align=center;verticalAlign=middle;whiteSpace=wrap;rounded=0;fontFamily=Times New Roman;fontSize=14;" vertex="1" parent="1">
          <mxGeometry x="2074" y="559.19" width="90" height="30" as="geometry" />
        </mxCell>
        <mxCell id="eD3EnxpkZgD8jWpwzmpm-144" value="" style="endArrow=classic;html=1;rounded=0;entryX=0.5;entryY=1;entryDx=0;entryDy=0;exitX=0;exitY=1;exitDx=0;exitDy=0;fontFamily=Times New Roman;fontSize=14;" edge="1" parent="1" source="eD3EnxpkZgD8jWpwzmpm-145" target="eD3EnxpkZgD8jWpwzmpm-141">
          <mxGeometry width="50" height="50" relative="1" as="geometry">
            <mxPoint x="2114" y="663.6700000000001" as="sourcePoint" />
            <mxPoint x="2174" y="663.6700000000001" as="targetPoint" />
          </mxGeometry>
        </mxCell>
        <mxCell id="eD3EnxpkZgD8jWpwzmpm-145" value="mult_result" style="text;html=1;align=center;verticalAlign=middle;whiteSpace=wrap;rounded=0;fontFamily=Times New Roman;fontSize=14;" vertex="1" parent="1">
          <mxGeometry x="2076" y="598.21" width="90" height="30" as="geometry" />
        </mxCell>
        <mxCell id="eD3EnxpkZgD8jWpwzmpm-149" style="edgeStyle=orthogonalEdgeStyle;rounded=0;orthogonalLoop=1;jettySize=auto;html=1;exitX=0.5;exitY=0;exitDx=0;exitDy=0;entryX=1;entryY=0.5;entryDx=0;entryDy=0;" edge="1" parent="1" target="eD3EnxpkZgD8jWpwzmpm-141">
          <mxGeometry relative="1" as="geometry">
            <mxPoint x="2204.1749999999997" y="728.75" as="sourcePoint" />
          </mxGeometry>
        </mxCell>
        <mxCell id="eD3EnxpkZgD8jWpwzmpm-172" style="edgeStyle=orthogonalEdgeStyle;rounded=0;orthogonalLoop=1;jettySize=auto;html=1;exitX=0.5;exitY=1;exitDx=0;exitDy=0;entryX=0;entryY=0.25;entryDx=0;entryDy=0;" edge="1" parent="1" source="eD3EnxpkZgD8jWpwzmpm-151" target="eD3EnxpkZgD8jWpwzmpm-157">
          <mxGeometry relative="1" as="geometry" />
        </mxCell>
        <mxCell id="eD3EnxpkZgD8jWpwzmpm-151" value="&lt;div style=&quot;font-size: 14px;&quot;&gt;REG&lt;/div&gt;&lt;div style=&quot;font-size: 14px;&quot;&gt;state&lt;/div&gt;&lt;div style=&quot;font-size: 14px;&quot;&gt;[4:0]&lt;/div&gt;" style="rounded=0;whiteSpace=wrap;html=1;fontFamily=Times New Roman;fontSize=14;" vertex="1" parent="1">
          <mxGeometry x="1208.33" y="190" width="70" height="100" as="geometry" />
        </mxCell>
        <mxCell id="eD3EnxpkZgD8jWpwzmpm-152" style="edgeStyle=orthogonalEdgeStyle;rounded=0;orthogonalLoop=1;jettySize=auto;html=1;exitX=-0.059;exitY=0.388;exitDx=0;exitDy=0;endArrow=none;endFill=0;startArrow=classicThin;startFill=1;fontSize=14;fontFamily=Times New Roman;exitPerimeter=0;" edge="1" parent="1">
          <mxGeometry relative="1" as="geometry">
            <mxPoint x="1162.46" y="260.20000000000005" as="targetPoint" />
            <mxPoint x="1208.33" y="259.9999999999998" as="sourcePoint" />
          </mxGeometry>
        </mxCell>
        <mxCell id="eD3EnxpkZgD8jWpwzmpm-153" value="clk_i" style="edgeLabel;html=1;align=center;verticalAlign=middle;resizable=0;points=[];fontSize=14;fontFamily=Times New Roman;" vertex="1" connectable="0" parent="eD3EnxpkZgD8jWpwzmpm-152">
          <mxGeometry x="0.9804" y="-1" relative="1" as="geometry">
            <mxPoint x="15" y="-12" as="offset" />
          </mxGeometry>
        </mxCell>
        <mxCell id="eD3EnxpkZgD8jWpwzmpm-154" style="edgeStyle=orthogonalEdgeStyle;rounded=0;orthogonalLoop=1;jettySize=auto;html=1;exitX=0.25;exitY=0;exitDx=0;exitDy=0;endArrow=none;endFill=0;startArrow=classicThin;startFill=1;fontSize=14;fontFamily=Times New Roman;" edge="1" parent="1">
          <mxGeometry relative="1" as="geometry">
            <mxPoint x="1160" y="280" as="targetPoint" />
            <mxPoint x="1208.33" y="280" as="sourcePoint" />
          </mxGeometry>
        </mxCell>
        <mxCell id="eD3EnxpkZgD8jWpwzmpm-155" value="rst_i" style="edgeLabel;html=1;align=center;verticalAlign=middle;resizable=0;points=[];fontSize=14;fontFamily=Times New Roman;" vertex="1" connectable="0" parent="eD3EnxpkZgD8jWpwzmpm-154">
          <mxGeometry x="0.9804" y="-1" relative="1" as="geometry">
            <mxPoint x="20" y="-9" as="offset" />
          </mxGeometry>
        </mxCell>
        <mxCell id="eD3EnxpkZgD8jWpwzmpm-156" value="state" style="text;html=1;align=center;verticalAlign=middle;resizable=0;points=[];autosize=1;strokeColor=none;fillColor=none;fontFamily=Times New Roman;" vertex="1" parent="1">
          <mxGeometry x="1251" y="437.18" width="50" height="30" as="geometry" />
        </mxCell>
        <mxCell id="eD3EnxpkZgD8jWpwzmpm-174" style="edgeStyle=orthogonalEdgeStyle;rounded=0;orthogonalLoop=1;jettySize=auto;html=1;exitX=1;exitY=0.25;exitDx=0;exitDy=0;" edge="1" parent="1">
          <mxGeometry relative="1" as="geometry">
            <mxPoint x="1530" y="427.6363636363635" as="targetPoint" />
            <mxPoint x="1431" y="427" as="sourcePoint" />
          </mxGeometry>
        </mxCell>
        <mxCell id="eD3EnxpkZgD8jWpwzmpm-247" style="edgeStyle=orthogonalEdgeStyle;rounded=0;orthogonalLoop=1;jettySize=auto;html=1;exitX=1;exitY=0.5;exitDx=0;exitDy=0;" edge="1" parent="1">
          <mxGeometry relative="1" as="geometry">
            <mxPoint x="1540" y="461" as="targetPoint" />
            <mxPoint x="1431" y="461" as="sourcePoint" />
          </mxGeometry>
        </mxCell>
        <mxCell id="eD3EnxpkZgD8jWpwzmpm-157" value="CONTROL&lt;div&gt;UNIT&lt;/div&gt;" style="rounded=0;whiteSpace=wrap;html=1;fontFamily=Times New Roman;fontStyle=1;fontSize=14;" vertex="1" parent="1">
          <mxGeometry x="1311" y="405" width="120" height="245" as="geometry" />
        </mxCell>
        <mxCell id="eD3EnxpkZgD8jWpwzmpm-168" style="edgeStyle=orthogonalEdgeStyle;rounded=0;orthogonalLoop=1;jettySize=auto;html=1;exitX=-0.059;exitY=0.388;exitDx=0;exitDy=0;endArrow=none;endFill=0;startArrow=classicThin;startFill=1;fontSize=14;fontFamily=Times New Roman;exitPerimeter=0;" edge="1" parent="1">
          <mxGeometry relative="1" as="geometry">
            <mxPoint x="1265.13" y="550.2" as="targetPoint" />
            <mxPoint x="1311" y="549.9999999999998" as="sourcePoint" />
          </mxGeometry>
        </mxCell>
        <mxCell id="eD3EnxpkZgD8jWpwzmpm-169" value="clk_i" style="edgeLabel;html=1;align=center;verticalAlign=middle;resizable=0;points=[];fontSize=14;fontFamily=Times New Roman;" vertex="1" connectable="0" parent="eD3EnxpkZgD8jWpwzmpm-168">
          <mxGeometry x="0.9804" y="-1" relative="1" as="geometry">
            <mxPoint x="15" y="-12" as="offset" />
          </mxGeometry>
        </mxCell>
        <mxCell id="eD3EnxpkZgD8jWpwzmpm-175" value="mult_start" style="text;html=1;align=center;verticalAlign=middle;resizable=0;points=[];autosize=1;strokeColor=none;fillColor=none;" vertex="1" parent="1">
          <mxGeometry x="1431" y="405" width="80" height="30" as="geometry" />
        </mxCell>
        <mxCell id="eD3EnxpkZgD8jWpwzmpm-245" style="edgeStyle=orthogonalEdgeStyle;rounded=0;orthogonalLoop=1;jettySize=auto;html=1;exitX=0.5;exitY=0;exitDx=0;exitDy=0;entryX=1;entryY=0.5;entryDx=0;entryDy=0;" edge="1" parent="1" target="eD3EnxpkZgD8jWpwzmpm-95">
          <mxGeometry relative="1" as="geometry">
            <mxPoint x="1408.4549999999997" y="940.25" as="sourcePoint" />
          </mxGeometry>
        </mxCell>
        <mxCell id="eD3EnxpkZgD8jWpwzmpm-246" value="s_mx" style="text;html=1;align=center;verticalAlign=middle;resizable=0;points=[];autosize=1;strokeColor=none;fillColor=none;" vertex="1" parent="1">
          <mxGeometry x="1383.33" y="941.25" width="50" height="30" as="geometry" />
        </mxCell>
        <mxCell id="eD3EnxpkZgD8jWpwzmpm-248" value="s_mx" style="text;html=1;align=center;verticalAlign=middle;resizable=0;points=[];autosize=1;strokeColor=none;fillColor=none;" vertex="1" parent="1">
          <mxGeometry x="1440" y="436" width="50" height="30" as="geometry" />
        </mxCell>
        <mxCell id="eD3EnxpkZgD8jWpwzmpm-253" style="edgeStyle=orthogonalEdgeStyle;rounded=0;orthogonalLoop=1;jettySize=auto;html=1;exitX=1;exitY=0.5;exitDx=0;exitDy=0;" edge="1" parent="1">
          <mxGeometry relative="1" as="geometry">
            <mxPoint x="1540" y="491" as="targetPoint" />
            <mxPoint x="1431" y="491" as="sourcePoint" />
          </mxGeometry>
        </mxCell>
        <mxCell id="eD3EnxpkZgD8jWpwzmpm-254" value="x_mx" style="text;html=1;align=center;verticalAlign=middle;resizable=0;points=[];autosize=1;strokeColor=none;fillColor=none;" vertex="1" parent="1">
          <mxGeometry x="1440" y="466" width="50" height="30" as="geometry" />
        </mxCell>
        <mxCell id="eD3EnxpkZgD8jWpwzmpm-265" style="edgeStyle=orthogonalEdgeStyle;rounded=0;orthogonalLoop=1;jettySize=auto;html=1;exitX=1;exitY=0.5;exitDx=0;exitDy=0;" edge="1" parent="1" source="eD3EnxpkZgD8jWpwzmpm-255">
          <mxGeometry relative="1" as="geometry">
            <mxPoint x="1840" y="627" as="targetPoint" />
          </mxGeometry>
        </mxCell>
        <mxCell id="eD3EnxpkZgD8jWpwzmpm-255" value="&lt;div style=&quot;font-size: 14px;&quot;&gt;REG&lt;/div&gt;&lt;div style=&quot;font-size: 14px;&quot;&gt;x&lt;/div&gt;&lt;div style=&quot;font-size: 14px;&quot;&gt;[7:0]&lt;/div&gt;" style="rounded=0;whiteSpace=wrap;html=1;fontFamily=Times New Roman;fontSize=14;" vertex="1" parent="1">
          <mxGeometry x="1720" y="576.4300000000001" width="70" height="100" as="geometry" />
        </mxCell>
        <mxCell id="eD3EnxpkZgD8jWpwzmpm-256" style="edgeStyle=orthogonalEdgeStyle;rounded=0;orthogonalLoop=1;jettySize=auto;html=1;exitX=-0.059;exitY=0.388;exitDx=0;exitDy=0;endArrow=none;endFill=0;startArrow=classicThin;startFill=1;fontSize=14;fontFamily=Times New Roman;exitPerimeter=0;" edge="1" parent="1">
          <mxGeometry relative="1" as="geometry">
            <mxPoint x="1674.13" y="646.6300000000001" as="targetPoint" />
            <mxPoint x="1720" y="646.4299999999998" as="sourcePoint" />
          </mxGeometry>
        </mxCell>
        <mxCell id="eD3EnxpkZgD8jWpwzmpm-257" value="clk_i" style="edgeLabel;html=1;align=center;verticalAlign=middle;resizable=0;points=[];fontSize=14;fontFamily=Times New Roman;" vertex="1" connectable="0" parent="eD3EnxpkZgD8jWpwzmpm-256">
          <mxGeometry x="0.9804" y="-1" relative="1" as="geometry">
            <mxPoint x="15" y="-12" as="offset" />
          </mxGeometry>
        </mxCell>
        <mxCell id="eD3EnxpkZgD8jWpwzmpm-258" style="edgeStyle=orthogonalEdgeStyle;rounded=0;orthogonalLoop=1;jettySize=auto;html=1;exitX=0.25;exitY=0;exitDx=0;exitDy=0;endArrow=none;endFill=0;startArrow=classicThin;startFill=1;fontSize=14;fontFamily=Times New Roman;" edge="1" parent="1">
          <mxGeometry relative="1" as="geometry">
            <mxPoint x="1671.67" y="666.4300000000001" as="targetPoint" />
            <mxPoint x="1720" y="666.4300000000001" as="sourcePoint" />
          </mxGeometry>
        </mxCell>
        <mxCell id="eD3EnxpkZgD8jWpwzmpm-259" value="rst_i" style="edgeLabel;html=1;align=center;verticalAlign=middle;resizable=0;points=[];fontSize=14;fontFamily=Times New Roman;" vertex="1" connectable="0" parent="eD3EnxpkZgD8jWpwzmpm-258">
          <mxGeometry x="0.9804" y="-1" relative="1" as="geometry">
            <mxPoint x="20" y="-9" as="offset" />
          </mxGeometry>
        </mxCell>
        <mxCell id="eD3EnxpkZgD8jWpwzmpm-260" value="x" style="text;html=1;align=center;verticalAlign=middle;resizable=0;points=[];autosize=1;strokeColor=none;fillColor=none;fontFamily=Times New Roman;" vertex="1" parent="1">
          <mxGeometry x="1790" y="601.4300000000001" width="30" height="30" as="geometry" />
        </mxCell>
        <mxCell id="eD3EnxpkZgD8jWpwzmpm-261" value="" style="endArrow=classic;html=1;rounded=0;entryX=0.25;entryY=1;entryDx=0;entryDy=0;exitX=0;exitY=1;exitDx=0;exitDy=0;fontFamily=Times New Roman;fontSize=14;strokeWidth=2;" edge="1" parent="1">
          <mxGeometry width="50" height="50" relative="1" as="geometry">
            <mxPoint x="1620" y="600" as="sourcePoint" />
            <mxPoint x="1720" y="600" as="targetPoint" />
          </mxGeometry>
        </mxCell>
        <mxCell id="eD3EnxpkZgD8jWpwzmpm-262" value="x_bi" style="text;html=1;align=center;verticalAlign=middle;whiteSpace=wrap;rounded=0;fontFamily=Times New Roman;fontSize=14;" vertex="1" parent="1">
          <mxGeometry x="1620" y="570" width="90" height="30" as="geometry" />
        </mxCell>
        <mxCell id="eD3EnxpkZgD8jWpwzmpm-264" value="x_mx" style="text;html=1;align=center;verticalAlign=middle;resizable=0;points=[];autosize=1;strokeColor=none;fillColor=none;" vertex="1" parent="1">
          <mxGeometry x="1543.33" y="735" width="50" height="30" as="geometry" />
        </mxCell>
        <mxCell id="eD3EnxpkZgD8jWpwzmpm-268" style="edgeStyle=orthogonalEdgeStyle;rounded=0;orthogonalLoop=1;jettySize=auto;html=1;exitX=1;exitY=0.5;exitDx=0;exitDy=0;" edge="1" parent="1">
          <mxGeometry relative="1" as="geometry">
            <mxPoint x="1540" y="526" as="targetPoint" />
            <mxPoint x="1431" y="526" as="sourcePoint" />
          </mxGeometry>
        </mxCell>
        <mxCell id="eD3EnxpkZgD8jWpwzmpm-269" value="y_mx" style="text;html=1;align=center;verticalAlign=middle;resizable=0;points=[];autosize=1;strokeColor=none;fillColor=none;" vertex="1" parent="1">
          <mxGeometry x="1440" y="501" width="50" height="30" as="geometry" />
        </mxCell>
        <mxCell id="eD3EnxpkZgD8jWpwzmpm-270" value="y_mx" style="text;html=1;align=center;verticalAlign=middle;resizable=0;points=[];autosize=1;strokeColor=none;fillColor=none;" vertex="1" parent="1">
          <mxGeometry x="2179" y="726.75" width="50" height="30" as="geometry" />
        </mxCell>
        <mxCell id="eD3EnxpkZgD8jWpwzmpm-271" value="b_mx" style="text;html=1;align=center;verticalAlign=middle;resizable=0;points=[];autosize=1;strokeColor=none;fillColor=none;" vertex="1" parent="1">
          <mxGeometry x="1550" y="1141.25" width="50" height="30" as="geometry" />
        </mxCell>
        <mxCell id="eD3EnxpkZgD8jWpwzmpm-273" style="edgeStyle=orthogonalEdgeStyle;rounded=0;orthogonalLoop=1;jettySize=auto;html=1;exitX=0.5;exitY=0;exitDx=0;exitDy=0;entryX=1;entryY=0.5;entryDx=0;entryDy=0;" edge="1" parent="1">
          <mxGeometry relative="1" as="geometry">
            <mxPoint x="1574.6449999999995" y="1143.71" as="sourcePoint" />
            <mxPoint x="1574.85" y="1092.71" as="targetPoint" />
          </mxGeometry>
        </mxCell>
        <mxCell id="eD3EnxpkZgD8jWpwzmpm-274" style="edgeStyle=orthogonalEdgeStyle;rounded=0;orthogonalLoop=1;jettySize=auto;html=1;exitX=1;exitY=0.5;exitDx=0;exitDy=0;" edge="1" parent="1">
          <mxGeometry relative="1" as="geometry">
            <mxPoint x="1540" y="556" as="targetPoint" />
            <mxPoint x="1431" y="556" as="sourcePoint" />
          </mxGeometry>
        </mxCell>
        <mxCell id="eD3EnxpkZgD8jWpwzmpm-275" value="b_mx" style="text;html=1;align=center;verticalAlign=middle;resizable=0;points=[];autosize=1;strokeColor=none;fillColor=none;" vertex="1" parent="1">
          <mxGeometry x="1440" y="531" width="50" height="30" as="geometry" />
        </mxCell>
        <mxCell id="eD3EnxpkZgD8jWpwzmpm-280" style="edgeStyle=orthogonalEdgeStyle;rounded=0;orthogonalLoop=1;jettySize=auto;html=1;exitX=1;exitY=0.5;exitDx=0;exitDy=0;" edge="1" parent="1">
          <mxGeometry relative="1" as="geometry">
            <mxPoint x="1540" y="584" as="targetPoint" />
            <mxPoint x="1431" y="584" as="sourcePoint" />
          </mxGeometry>
        </mxCell>
        <mxCell id="eD3EnxpkZgD8jWpwzmpm-281" value="mult_start" style="text;html=1;align=center;verticalAlign=middle;resizable=0;points=[];autosize=1;strokeColor=none;fillColor=none;" vertex="1" parent="1">
          <mxGeometry x="1425" y="561.15" width="80" height="30" as="geometry" />
        </mxCell>
        <mxCell id="eD3EnxpkZgD8jWpwzmpm-299" style="edgeStyle=orthogonalEdgeStyle;rounded=0;orthogonalLoop=1;jettySize=auto;html=1;exitX=1;exitY=0.5;exitDx=0;exitDy=0;" edge="1" parent="1">
          <mxGeometry relative="1" as="geometry">
            <mxPoint x="1543.33" y="621.06" as="targetPoint" />
            <mxPoint x="1434.33" y="621.06" as="sourcePoint" />
          </mxGeometry>
        </mxCell>
        <mxCell id="eD3EnxpkZgD8jWpwzmpm-300" value="sum_mx" style="text;html=1;align=center;verticalAlign=middle;resizable=0;points=[];autosize=1;strokeColor=none;fillColor=none;" vertex="1" parent="1">
          <mxGeometry x="1433.33" y="598.2099999999999" width="70" height="30" as="geometry" />
        </mxCell>
        <mxCell id="eD3EnxpkZgD8jWpwzmpm-303" style="edgeStyle=orthogonalEdgeStyle;rounded=0;orthogonalLoop=1;jettySize=auto;html=1;exitX=1;exitY=0.5;exitDx=0;exitDy=0;" edge="1" parent="1" source="eD3EnxpkZgD8jWpwzmpm-304">
          <mxGeometry relative="1" as="geometry">
            <mxPoint x="2678.01" y="224.68" as="targetPoint" />
          </mxGeometry>
        </mxCell>
        <mxCell id="eD3EnxpkZgD8jWpwzmpm-304" value="&lt;div style=&quot;font-size: 14px;&quot;&gt;REG&lt;/div&gt;&lt;div style=&quot;font-size: 14px;&quot;&gt;sum_a&lt;/div&gt;&lt;div style=&quot;font-size: 14px;&quot;&gt;[7:0]&lt;/div&gt;&lt;div style=&quot;font-size: 14px;&quot;&gt;&lt;br style=&quot;font-size: 14px;&quot;&gt;&lt;/div&gt;" style="rounded=0;whiteSpace=wrap;html=1;fontFamily=Times New Roman;fontSize=14;" vertex="1" parent="1">
          <mxGeometry x="2584.68" y="175.18" width="70" height="100" as="geometry" />
        </mxCell>
        <mxCell id="eD3EnxpkZgD8jWpwzmpm-305" style="edgeStyle=orthogonalEdgeStyle;rounded=0;orthogonalLoop=1;jettySize=auto;html=1;exitX=-0.059;exitY=0.388;exitDx=0;exitDy=0;endArrow=none;endFill=0;startArrow=classicThin;startFill=1;fontSize=14;fontFamily=Times New Roman;exitPerimeter=0;" edge="1" parent="1">
          <mxGeometry relative="1" as="geometry">
            <mxPoint x="2538.81" y="245.38000000000005" as="targetPoint" />
            <mxPoint x="2584.68" y="245.17999999999978" as="sourcePoint" />
          </mxGeometry>
        </mxCell>
        <mxCell id="eD3EnxpkZgD8jWpwzmpm-306" value="clk_i" style="edgeLabel;html=1;align=center;verticalAlign=middle;resizable=0;points=[];fontSize=14;fontFamily=Times New Roman;" vertex="1" connectable="0" parent="eD3EnxpkZgD8jWpwzmpm-305">
          <mxGeometry x="0.9804" y="-1" relative="1" as="geometry">
            <mxPoint x="15" y="-12" as="offset" />
          </mxGeometry>
        </mxCell>
        <mxCell id="eD3EnxpkZgD8jWpwzmpm-307" style="edgeStyle=orthogonalEdgeStyle;rounded=0;orthogonalLoop=1;jettySize=auto;html=1;exitX=0.25;exitY=0;exitDx=0;exitDy=0;endArrow=none;endFill=0;startArrow=classicThin;startFill=1;fontSize=14;fontFamily=Times New Roman;" edge="1" parent="1">
          <mxGeometry relative="1" as="geometry">
            <mxPoint x="2536.35" y="265.18" as="targetPoint" />
            <mxPoint x="2584.68" y="265.18" as="sourcePoint" />
          </mxGeometry>
        </mxCell>
        <mxCell id="eD3EnxpkZgD8jWpwzmpm-308" value="rst_i" style="edgeLabel;html=1;align=center;verticalAlign=middle;resizable=0;points=[];fontSize=14;fontFamily=Times New Roman;" vertex="1" connectable="0" parent="eD3EnxpkZgD8jWpwzmpm-307">
          <mxGeometry x="0.9804" y="-1" relative="1" as="geometry">
            <mxPoint x="20" y="-9" as="offset" />
          </mxGeometry>
        </mxCell>
        <mxCell id="eD3EnxpkZgD8jWpwzmpm-309" style="edgeStyle=orthogonalEdgeStyle;rounded=0;orthogonalLoop=1;jettySize=auto;html=1;exitX=1;exitY=0.5;exitDx=0;exitDy=0;" edge="1" parent="1" source="eD3EnxpkZgD8jWpwzmpm-310">
          <mxGeometry relative="1" as="geometry">
            <mxPoint x="2688.01" y="399.68" as="targetPoint" />
          </mxGeometry>
        </mxCell>
        <mxCell id="eD3EnxpkZgD8jWpwzmpm-310" value="&lt;div style=&quot;font-size: 14px;&quot;&gt;REG&lt;/div&gt;&lt;div style=&quot;font-size: 14px;&quot;&gt;sum_b&lt;/div&gt;&lt;div style=&quot;font-size: 14px;&quot;&gt;[7:0]&lt;/div&gt;&lt;div style=&quot;font-size: 14px;&quot;&gt;&lt;br style=&quot;font-size: 14px;&quot;&gt;&lt;/div&gt;" style="rounded=0;whiteSpace=wrap;html=1;fontFamily=Times New Roman;fontSize=14;" vertex="1" parent="1">
          <mxGeometry x="2584.68" y="350.18" width="70" height="100" as="geometry" />
        </mxCell>
        <mxCell id="eD3EnxpkZgD8jWpwzmpm-311" style="edgeStyle=orthogonalEdgeStyle;rounded=0;orthogonalLoop=1;jettySize=auto;html=1;exitX=-0.059;exitY=0.388;exitDx=0;exitDy=0;endArrow=none;endFill=0;startArrow=classicThin;startFill=1;fontSize=14;fontFamily=Times New Roman;exitPerimeter=0;" edge="1" parent="1">
          <mxGeometry relative="1" as="geometry">
            <mxPoint x="2538.81" y="420.38000000000005" as="targetPoint" />
            <mxPoint x="2584.68" y="420.1799999999998" as="sourcePoint" />
          </mxGeometry>
        </mxCell>
        <mxCell id="eD3EnxpkZgD8jWpwzmpm-312" value="clk_i" style="edgeLabel;html=1;align=center;verticalAlign=middle;resizable=0;points=[];fontSize=14;fontFamily=Times New Roman;" vertex="1" connectable="0" parent="eD3EnxpkZgD8jWpwzmpm-311">
          <mxGeometry x="0.9804" y="-1" relative="1" as="geometry">
            <mxPoint x="15" y="-12" as="offset" />
          </mxGeometry>
        </mxCell>
        <mxCell id="eD3EnxpkZgD8jWpwzmpm-313" style="edgeStyle=orthogonalEdgeStyle;rounded=0;orthogonalLoop=1;jettySize=auto;html=1;exitX=0.25;exitY=0;exitDx=0;exitDy=0;endArrow=none;endFill=0;startArrow=classicThin;startFill=1;fontSize=14;fontFamily=Times New Roman;" edge="1" parent="1">
          <mxGeometry relative="1" as="geometry">
            <mxPoint x="2536.35" y="440.18" as="targetPoint" />
            <mxPoint x="2584.68" y="440.18" as="sourcePoint" />
          </mxGeometry>
        </mxCell>
        <mxCell id="eD3EnxpkZgD8jWpwzmpm-314" value="rst_i" style="edgeLabel;html=1;align=center;verticalAlign=middle;resizable=0;points=[];fontSize=14;fontFamily=Times New Roman;" vertex="1" connectable="0" parent="eD3EnxpkZgD8jWpwzmpm-313">
          <mxGeometry x="0.9804" y="-1" relative="1" as="geometry">
            <mxPoint x="20" y="-9" as="offset" />
          </mxGeometry>
        </mxCell>
        <mxCell id="eD3EnxpkZgD8jWpwzmpm-315" style="edgeStyle=orthogonalEdgeStyle;rounded=0;orthogonalLoop=1;jettySize=auto;html=1;exitX=0.5;exitY=0;exitDx=0;exitDy=0;entryX=0;entryY=0.25;entryDx=0;entryDy=0;fontFamily=Times New Roman;" edge="1" parent="1" source="eD3EnxpkZgD8jWpwzmpm-316" target="eD3EnxpkZgD8jWpwzmpm-310">
          <mxGeometry relative="1" as="geometry" />
        </mxCell>
        <mxCell id="eD3EnxpkZgD8jWpwzmpm-316" value="MX" style="shape=trapezoid;perimeter=trapezoidPerimeter;whiteSpace=wrap;html=1;fixedSize=1;rotation=90;fontFamily=Times New Roman;fontSize=14;" vertex="1" parent="1">
          <mxGeometry x="2354.1400000000003" y="386.88000000000005" width="148.41" height="60" as="geometry" />
        </mxCell>
        <mxCell id="eD3EnxpkZgD8jWpwzmpm-317" style="edgeStyle=orthogonalEdgeStyle;rounded=0;orthogonalLoop=1;jettySize=auto;html=1;exitX=0.5;exitY=0;exitDx=0;exitDy=0;entryX=0;entryY=0.25;entryDx=0;entryDy=0;fontFamily=Times New Roman;" edge="1" parent="1" source="eD3EnxpkZgD8jWpwzmpm-318" target="eD3EnxpkZgD8jWpwzmpm-304">
          <mxGeometry relative="1" as="geometry" />
        </mxCell>
        <mxCell id="eD3EnxpkZgD8jWpwzmpm-318" value="MX" style="shape=trapezoid;perimeter=trapezoidPerimeter;whiteSpace=wrap;html=1;fixedSize=1;rotation=90;fontFamily=Times New Roman;fontSize=14;" vertex="1" parent="1">
          <mxGeometry x="2356.41" y="210.87" width="146.37" height="60" as="geometry" />
        </mxCell>
        <mxCell id="eD3EnxpkZgD8jWpwzmpm-319" value="" style="endArrow=classic;html=1;rounded=0;entryX=0.125;entryY=1.045;entryDx=0;entryDy=0;entryPerimeter=0;fontFamily=Times New Roman;fontSize=14;" edge="1" parent="1">
          <mxGeometry width="50" height="50" relative="1" as="geometry">
            <mxPoint x="2329.7" y="181.93" as="sourcePoint" />
            <mxPoint x="2396.9999999999995" y="182.18" as="targetPoint" />
          </mxGeometry>
        </mxCell>
        <mxCell id="eD3EnxpkZgD8jWpwzmpm-320" value="y" style="edgeLabel;html=1;align=center;verticalAlign=middle;resizable=0;points=[];fontFamily=Times New Roman;fontSize=14;" vertex="1" connectable="0" parent="eD3EnxpkZgD8jWpwzmpm-319">
          <mxGeometry x="-0.3322" y="14" relative="1" as="geometry">
            <mxPoint x="7" as="offset" />
          </mxGeometry>
        </mxCell>
        <mxCell id="eD3EnxpkZgD8jWpwzmpm-321" value="b0001" style="text;html=1;align=center;verticalAlign=middle;resizable=0;points=[];autosize=1;strokeColor=none;fillColor=none;fontFamily=Times New Roman;fontSize=14;" vertex="1" parent="1">
          <mxGeometry x="2333.35" y="334.43" width="60" height="30" as="geometry" />
        </mxCell>
        <mxCell id="eD3EnxpkZgD8jWpwzmpm-322" value="" style="endArrow=classic;html=1;rounded=0;entryX=0.125;entryY=1.045;entryDx=0;entryDy=0;entryPerimeter=0;fontFamily=Times New Roman;fontSize=14;" edge="1" parent="1">
          <mxGeometry width="50" height="50" relative="1" as="geometry">
            <mxPoint x="2331.35" y="362.43" as="sourcePoint" />
            <mxPoint x="2398.35" y="362.43" as="targetPoint" />
          </mxGeometry>
        </mxCell>
        <mxCell id="eD3EnxpkZgD8jWpwzmpm-323" value="" style="endArrow=classic;html=1;rounded=0;entryX=0.125;entryY=1.045;entryDx=0;entryDy=0;entryPerimeter=0;fontFamily=Times New Roman;fontSize=14;" edge="1" parent="1">
          <mxGeometry width="50" height="50" relative="1" as="geometry">
            <mxPoint x="2329.85" y="210.18" as="sourcePoint" />
            <mxPoint x="2396.85" y="210.18" as="targetPoint" />
          </mxGeometry>
        </mxCell>
        <mxCell id="eD3EnxpkZgD8jWpwzmpm-324" value="mult_result" style="edgeLabel;html=1;align=center;verticalAlign=middle;resizable=0;points=[];fontFamily=Times New Roman;fontSize=14;" vertex="1" connectable="0" parent="eD3EnxpkZgD8jWpwzmpm-323">
          <mxGeometry x="-0.3322" y="14" relative="1" as="geometry">
            <mxPoint x="7" as="offset" />
          </mxGeometry>
        </mxCell>
        <mxCell id="eD3EnxpkZgD8jWpwzmpm-325" value="" style="endArrow=classic;html=1;rounded=0;entryX=0.125;entryY=1.045;entryDx=0;entryDy=0;entryPerimeter=0;fontFamily=Times New Roman;fontSize=14;" edge="1" parent="1">
          <mxGeometry width="50" height="50" relative="1" as="geometry">
            <mxPoint x="2332.85" y="392.43" as="sourcePoint" />
            <mxPoint x="2399.85" y="392.43" as="targetPoint" />
          </mxGeometry>
        </mxCell>
        <mxCell id="eD3EnxpkZgD8jWpwzmpm-326" value="" style="endArrow=classic;html=1;rounded=0;entryX=0.125;entryY=1.045;entryDx=0;entryDy=0;entryPerimeter=0;fontFamily=Times New Roman;fontSize=14;" edge="1" parent="1">
          <mxGeometry width="50" height="50" relative="1" as="geometry">
            <mxPoint x="2332.85" y="420.43" as="sourcePoint" />
            <mxPoint x="2399.85" y="420.43" as="targetPoint" />
          </mxGeometry>
        </mxCell>
        <mxCell id="eD3EnxpkZgD8jWpwzmpm-327" value="" style="endArrow=classic;html=1;rounded=0;entryX=0.125;entryY=1.045;entryDx=0;entryDy=0;entryPerimeter=0;fontFamily=Times New Roman;fontSize=14;" edge="1" parent="1">
          <mxGeometry width="50" height="50" relative="1" as="geometry">
            <mxPoint x="2326.35" y="236.47000000000003" as="sourcePoint" />
            <mxPoint x="2393.35" y="236.47000000000003" as="targetPoint" />
          </mxGeometry>
        </mxCell>
        <mxCell id="eD3EnxpkZgD8jWpwzmpm-328" value="b0001" style="text;html=1;align=center;verticalAlign=middle;resizable=0;points=[];autosize=1;strokeColor=none;fillColor=none;fontFamily=Times New Roman;fontSize=14;" vertex="1" parent="1">
          <mxGeometry x="2333.35" y="364.43" width="60" height="30" as="geometry" />
        </mxCell>
        <mxCell id="eD3EnxpkZgD8jWpwzmpm-329" value="" style="endArrow=classic;html=1;rounded=0;entryX=0.125;entryY=1.045;entryDx=0;entryDy=0;entryPerimeter=0;fontFamily=Times New Roman;fontSize=14;" edge="1" parent="1">
          <mxGeometry width="50" height="50" relative="1" as="geometry">
            <mxPoint x="2216" y="239.34000000000003" as="sourcePoint" />
            <mxPoint x="2283" y="239.34000000000003" as="targetPoint" />
          </mxGeometry>
        </mxCell>
        <mxCell id="eD3EnxpkZgD8jWpwzmpm-330" value="b" style="edgeLabel;html=1;align=center;verticalAlign=middle;resizable=0;points=[];fontFamily=Times New Roman;fontSize=14;" vertex="1" connectable="0" parent="eD3EnxpkZgD8jWpwzmpm-329">
          <mxGeometry x="-0.3322" y="14" relative="1" as="geometry">
            <mxPoint x="6" as="offset" />
          </mxGeometry>
        </mxCell>
        <mxCell id="eD3EnxpkZgD8jWpwzmpm-331" value="" style="triangle;whiteSpace=wrap;html=1;fontFamily=Times New Roman;" vertex="1" parent="1">
          <mxGeometry x="2283" y="215.34000000000003" width="35" height="40" as="geometry" />
        </mxCell>
        <mxCell id="eD3EnxpkZgD8jWpwzmpm-332" value="" style="ellipse;whiteSpace=wrap;html=1;aspect=fixed;fontFamily=Times New Roman;" vertex="1" parent="1">
          <mxGeometry x="2318.01" y="229.34000000000003" width="9.99" height="9.99" as="geometry" />
        </mxCell>
        <mxCell id="eD3EnxpkZgD8jWpwzmpm-333" value="b0001" style="text;html=1;align=center;verticalAlign=middle;resizable=0;points=[];autosize=1;strokeColor=none;fillColor=none;fontFamily=Times New Roman;fontSize=14;" vertex="1" parent="1">
          <mxGeometry x="2331.35" y="394.43" width="60" height="30" as="geometry" />
        </mxCell>
        <mxCell id="eD3EnxpkZgD8jWpwzmpm-334" value="" style="endArrow=classic;html=1;rounded=0;entryX=0.125;entryY=1.045;entryDx=0;entryDy=0;entryPerimeter=0;fontFamily=Times New Roman;fontSize=14;" edge="1" parent="1">
          <mxGeometry width="50" height="50" relative="1" as="geometry">
            <mxPoint x="2330.6" y="450.43" as="sourcePoint" />
            <mxPoint x="2397.6" y="450.43" as="targetPoint" />
          </mxGeometry>
        </mxCell>
        <mxCell id="eD3EnxpkZgD8jWpwzmpm-335" value="" style="endArrow=classic;html=1;rounded=0;entryX=0.125;entryY=1.045;entryDx=0;entryDy=0;entryPerimeter=0;fontFamily=Times New Roman;fontSize=14;" edge="1" parent="1">
          <mxGeometry width="50" height="50" relative="1" as="geometry">
            <mxPoint x="2329.85" y="265.34000000000003" as="sourcePoint" />
            <mxPoint x="2396.85" y="265.34000000000003" as="targetPoint" />
          </mxGeometry>
        </mxCell>
        <mxCell id="eD3EnxpkZgD8jWpwzmpm-336" value="x" style="edgeLabel;html=1;align=center;verticalAlign=middle;resizable=0;points=[];fontFamily=Times New Roman;fontSize=14;" vertex="1" connectable="0" parent="eD3EnxpkZgD8jWpwzmpm-335">
          <mxGeometry x="-0.3322" y="14" relative="1" as="geometry">
            <mxPoint x="7" as="offset" />
          </mxGeometry>
        </mxCell>
        <mxCell id="eD3EnxpkZgD8jWpwzmpm-337" value="sum_result" style="edgeLabel;html=1;align=center;verticalAlign=middle;resizable=0;points=[];fontFamily=Times New Roman;fontSize=14;" vertex="1" connectable="0" parent="1">
          <mxGeometry x="2360.35" y="437.1799999999999" as="geometry" />
        </mxCell>
        <mxCell id="eD3EnxpkZgD8jWpwzmpm-338" value="" style="endArrow=classic;html=1;rounded=0;entryX=0.125;entryY=1.045;entryDx=0;entryDy=0;entryPerimeter=0;fontFamily=Times New Roman;fontSize=14;" edge="1" parent="1">
          <mxGeometry width="50" height="50" relative="1" as="geometry">
            <mxPoint x="2331.35" y="478.18" as="sourcePoint" />
            <mxPoint x="2398.35" y="478.18" as="targetPoint" />
          </mxGeometry>
        </mxCell>
        <mxCell id="eD3EnxpkZgD8jWpwzmpm-339" value="-3" style="edgeLabel;html=1;align=center;verticalAlign=middle;resizable=0;points=[];fontFamily=Times New Roman;fontSize=14;" vertex="1" connectable="0" parent="1">
          <mxGeometry x="2360.35" y="463.1799999999999" as="geometry">
            <mxPoint y="-1" as="offset" />
          </mxGeometry>
        </mxCell>
        <mxCell id="eD3EnxpkZgD8jWpwzmpm-340" value="" style="endArrow=classic;html=1;rounded=0;entryX=0.125;entryY=1.045;entryDx=0;entryDy=0;entryPerimeter=0;fontFamily=Times New Roman;fontSize=14;" edge="1" parent="1">
          <mxGeometry width="50" height="50" relative="1" as="geometry">
            <mxPoint x="2331.35" y="298.18" as="sourcePoint" />
            <mxPoint x="2398.35" y="298.18" as="targetPoint" />
          </mxGeometry>
        </mxCell>
        <mxCell id="eD3EnxpkZgD8jWpwzmpm-341" value="s" style="edgeLabel;html=1;align=center;verticalAlign=middle;resizable=0;points=[];fontFamily=Times New Roman;fontSize=14;" vertex="1" connectable="0" parent="1">
          <mxGeometry x="2360.35" y="292.1799999999999" as="geometry">
            <mxPoint x="-1" y="-8" as="offset" />
          </mxGeometry>
        </mxCell>
        <mxCell id="eD3EnxpkZgD8jWpwzmpm-342" style="edgeStyle=orthogonalEdgeStyle;rounded=0;orthogonalLoop=1;jettySize=auto;html=1;entryX=1;entryY=0.5;entryDx=0;entryDy=0;" edge="1" parent="1">
          <mxGeometry relative="1" as="geometry">
            <mxPoint x="2430" y="510" as="sourcePoint" />
            <mxPoint x="2429.59" y="482.4" as="targetPoint" />
          </mxGeometry>
        </mxCell>
        <mxCell id="eD3EnxpkZgD8jWpwzmpm-343" value="sum_mx" style="text;html=1;align=center;verticalAlign=middle;resizable=0;points=[];autosize=1;strokeColor=none;fillColor=none;" vertex="1" parent="1">
          <mxGeometry x="2411" y="501" width="70" height="30" as="geometry" />
        </mxCell>
        <mxCell id="eD3EnxpkZgD8jWpwzmpm-344" style="edgeStyle=orthogonalEdgeStyle;rounded=0;orthogonalLoop=1;jettySize=auto;html=1;entryX=1;entryY=0.5;entryDx=0;entryDy=0;" edge="1" parent="1">
          <mxGeometry relative="1" as="geometry">
            <mxPoint x="2432" y="334" as="sourcePoint" />
            <mxPoint x="2431.8500000000004" y="308.13" as="targetPoint" />
          </mxGeometry>
        </mxCell>
        <mxCell id="eD3EnxpkZgD8jWpwzmpm-345" value="sum_mx" style="text;html=1;align=center;verticalAlign=middle;resizable=0;points=[];autosize=1;strokeColor=none;fillColor=none;" vertex="1" parent="1">
          <mxGeometry x="2420.0000000000005" y="330" width="70" height="30" as="geometry" />
        </mxCell>
      </root>
    </mxGraphModel>
  </diagram>
</mxfile>
